<svg width="129" height="34" viewBox="0 0 129 34" fill="none" xmlns="http://www.w3.org/2000/svg">
<rect y="0.771484" width="32.4569" height="32.4569" rx="7.72784" fill="url(#paint0_linear_1_263)"/>
<rect y="0.771484" width="32.4569" height="32.4569" rx="7.72784" fill="url(#paint1_linear_1_263)"/>
<path d="M16.2285 14.9713H20.2856V19.0284H16.2285V14.9713Z" fill="#59B9FF"/>
<path d="M8.11426 6.85706H12.1714V10.9142H8.11426V6.85706Z" fill="#6E4BFF"/>
<path d="M8.11426 23.0855H12.1714V27.1426H8.11426V23.0855Z" fill="#647EFF"/>
<path d="M8.11426 19.0284H12.1714V23.0855H8.11426V19.0284Z" fill="#9289FF"/>
<path d="M8.11426 14.9713H12.1714V19.0284H8.11426V14.9713Z" fill="#8669FF"/>
<path d="M12.1714 19.0284L16.2285 19.0284L16.2285 23.0855L12.1714 23.0855V19.0284Z" fill="#5571FF"/>
<path d="M20.2856 19.0284L24.3427 19.0284V23.0855H20.2856L20.2856 19.0284Z" fill="#35AAFE"/>
<path d="M12.1714 23.0855L16.2285 23.0855V27.1426H12.1714V23.0855Z" fill="#7A90FF"/>
<path d="M20.2856 23.0855H24.3427V27.1426H20.2856V23.0855Z" fill="#1AE5FF"/>
<path d="M20.2856 14.9713H24.3427V19.0284L20.2856 19.0284V14.9713Z" fill="#0185FF"/>
<path d="M43.8729 8.76425H46.8276V26H43.8729V8.76425ZM51.0211 12.9501H53.5326V15.1415C53.8445 14.4849 54.3534 13.9103 55.0592 13.4179C55.7651 12.9255 56.6761 12.6792 57.7923 12.6792C59.3846 12.6792 60.5829 13.1142 61.3872 13.9842C62.1915 14.8378 62.5937 16.0935 62.5937 17.7515V26H59.8852V18.367C59.8852 17.2672 59.6554 16.4383 59.1958 15.8802C58.7362 15.322 57.9811 15.043 56.9305 15.043C56.356 15.043 55.8635 15.1415 55.4532 15.3385C55.0592 15.519 54.7309 15.7652 54.4683 16.0771C54.222 16.3726 54.0333 16.7255 53.9019 17.1359C53.787 17.5299 53.7296 17.9402 53.7296 18.367V26H51.0211V12.9501ZM64.3375 12.9501H67.2922L71.281 23.0453L74.8759 12.9501H77.6336L72.586 26H69.8775L64.3375 12.9501ZM85.0338 26.2708C84.1638 26.2708 83.3431 26.1395 82.5716 25.8769C81.8001 25.5978 81.1189 25.1875 80.5279 24.6458C79.9534 24.0877 79.4938 23.39 79.1491 22.5528C78.8043 21.7157 78.632 20.7308 78.632 19.5981V19.1057C78.632 18.0223 78.7961 17.0784 79.1244 16.2741C79.4527 15.4698 79.8959 14.805 80.454 14.2797C81.0286 13.738 81.6852 13.3358 82.4238 13.0732C83.1625 12.8105 83.9504 12.6792 84.7876 12.6792C86.7738 12.6792 88.2922 13.2127 89.3428 14.2797C90.4097 15.3467 90.9432 16.8733 90.9432 18.8595V20.2383H81.3897C81.4061 20.9113 81.5128 21.4859 81.7098 21.9619C81.9232 22.4215 82.194 22.7991 82.5223 23.0945C82.8671 23.3736 83.2528 23.5788 83.6796 23.7101C84.1228 23.8414 84.5742 23.9071 85.0338 23.9071C85.9695 23.9071 86.6507 23.7594 87.0775 23.4639C87.5207 23.1684 87.8244 22.7827 87.9885 22.3066H90.697C90.4344 23.6034 89.786 24.5883 88.7518 25.2613C87.7341 25.9343 86.4948 26.2708 85.0338 26.2708ZM84.9107 15.043C84.4511 15.043 84.0079 15.1004 83.5811 15.2153C83.1707 15.3302 82.8014 15.519 82.4731 15.7817C82.1612 16.0279 81.9068 16.3562 81.7098 16.7666C81.5128 17.1605 81.4061 17.6448 81.3897 18.2193H88.2348C88.2183 17.6119 88.1199 17.1031 87.9393 16.6927C87.7751 16.2823 87.5453 15.954 87.2499 15.7078C86.9544 15.4616 86.6015 15.2892 86.1911 15.1907C85.7971 15.0922 85.3703 15.043 84.9107 15.043ZM93.6536 12.9501H96.1651V15.1661C96.4278 14.4931 96.8546 13.9103 97.4455 13.4179C98.0529 12.9255 98.7997 12.6792 99.6861 12.6792C100.097 12.6792 100.4 12.6956 100.597 12.7285C100.811 12.7613 100.958 12.7941 101.04 12.827V15.2892C100.761 15.2071 100.507 15.1497 100.277 15.1169C100.047 15.0676 99.7682 15.043 99.4399 15.043C98.8982 15.043 98.4304 15.1415 98.0364 15.3385C97.6589 15.519 97.347 15.7652 97.1008 16.0771C96.8546 16.3726 96.6658 16.7255 96.5345 17.1359C96.4196 17.5299 96.3621 17.9402 96.3621 18.367V26H93.6536V12.9501ZM108.172 26.2708C107.204 26.2708 106.375 26.1642 105.685 25.9508C105.012 25.7374 104.446 25.4501 103.986 25.089C103.543 24.7278 103.199 24.3093 102.952 23.8332C102.722 23.3408 102.575 22.8319 102.509 22.3066H105.218C105.332 22.7662 105.612 23.152 106.055 23.4639C106.498 23.7594 107.204 23.9071 108.172 23.9071C109.256 23.9071 110.019 23.7594 110.462 23.4639C110.905 23.1684 111.127 22.7827 111.127 22.3066C111.127 22.0932 111.07 21.8962 110.955 21.7157C110.84 21.5187 110.651 21.3463 110.388 21.1986C110.142 21.0345 109.806 20.8867 109.379 20.7554C108.952 20.6241 108.418 20.5174 107.778 20.4353C107.04 20.3368 106.367 20.1973 105.759 20.0167C105.152 19.8198 104.635 19.5653 104.208 19.2534C103.781 18.9415 103.453 18.564 103.223 18.1208C102.993 17.6776 102.878 17.1441 102.878 16.5203C102.878 15.9951 102.985 15.5026 103.199 15.043C103.412 14.567 103.74 14.1566 104.183 13.8119C104.627 13.4671 105.177 13.1963 105.833 12.9993C106.506 12.7859 107.286 12.6792 108.172 12.6792C109.026 12.6792 109.765 12.7859 110.388 12.9993C111.012 13.2127 111.529 13.5 111.939 13.8611C112.366 14.2222 112.686 14.649 112.9 15.1415C113.13 15.6175 113.277 16.1182 113.343 16.6434H110.635C110.503 16.1346 110.232 15.7406 109.822 15.4616C109.428 15.1825 108.878 15.043 108.172 15.043C107.204 15.043 106.531 15.1907 106.153 15.4862C105.776 15.7817 105.587 16.1264 105.587 16.5203C105.587 16.7501 105.636 16.9553 105.735 17.1359C105.833 17.3165 105.997 17.4806 106.227 17.6283C106.457 17.7597 106.769 17.8828 107.163 17.9977C107.573 18.1126 108.09 18.2029 108.714 18.2685C109.469 18.367 110.158 18.5148 110.782 18.7117C111.422 18.9087 111.964 19.1714 112.407 19.4997C112.867 19.8115 113.22 20.2055 113.466 20.6815C113.712 21.1412 113.835 21.6829 113.835 22.3066C113.835 22.8647 113.712 23.39 113.466 23.8825C113.236 24.3585 112.883 24.7771 112.407 25.1382C111.948 25.4829 111.357 25.762 110.635 25.9754C109.929 26.1724 109.108 26.2708 108.172 26.2708ZM122.208 26.2708C121.338 26.2708 120.517 26.1395 119.746 25.8769C118.974 25.5978 118.293 25.1875 117.702 24.6458C117.128 24.0877 116.668 23.39 116.323 22.5528C115.979 21.7157 115.806 20.7308 115.806 19.5981V19.1057C115.806 18.0223 115.97 17.0784 116.299 16.2741C116.627 15.4698 117.07 14.805 117.628 14.2797C118.203 13.738 118.859 13.3358 119.598 13.0732C120.337 12.8105 121.125 12.6792 121.962 12.6792C123.948 12.6792 125.466 13.2127 126.517 14.2797C127.584 15.3467 128.117 16.8733 128.117 18.8595V20.2383H118.564C118.58 20.9113 118.687 21.4859 118.884 21.9619C119.097 22.4215 119.368 22.7991 119.697 23.0945C120.041 23.3736 120.427 23.5788 120.854 23.7101C121.297 23.8414 121.748 23.9071 122.208 23.9071C123.144 23.9071 123.825 23.7594 124.252 23.4639C124.695 23.1684 124.999 22.7827 125.163 22.3066H127.871C127.609 23.6034 126.96 24.5883 125.926 25.2613C124.908 25.9343 123.669 26.2708 122.208 26.2708ZM122.085 15.043C121.625 15.043 121.182 15.1004 120.755 15.2153C120.345 15.3302 119.976 15.519 119.647 15.7817C119.335 16.0279 119.081 16.3562 118.884 16.7666C118.687 17.1605 118.58 17.6448 118.564 18.2193H125.409C125.393 17.6119 125.294 17.1031 125.113 16.6927C124.949 16.2823 124.72 15.954 124.424 15.7078C124.129 15.4616 123.776 15.2892 123.365 15.1907C122.971 15.0922 122.545 15.043 122.085 15.043Z" fill="white"/>
<defs>
<linearGradient id="paint0_linear_1_263" x1="16.2285" y1="0.771484" x2="-1.45094e-06" y2="33.2284" gradientUnits="userSpaceOnUse">
<stop stop-color="white"/>
<stop offset="1" stop-color="#D3C5FF"/>
</linearGradient>
<linearGradient id="paint1_linear_1_263" x1="16.2285" y1="0.771483" x2="32.4569" y2="33.2284" gradientUnits="userSpaceOnUse">
<stop offset="0.15625" stop-color="white" stop-opacity="0"/>
<stop offset="1" stop-color="#9FE0FF"/>
</linearGradient>
</defs>
</svg>
